<svg id="color_lens-black-18dp" xmlns="http://www.w3.org/2000/svg" width="97.447" height="97.447" viewBox="0 0 97.447 97.447">
  <defs>
    <style>
      .cls-1 {
        fill: #05ac72;
      }

      .cls-2 {
        fill: none;
      }

      .cls-3 {
        fill: #fff;
      }

      .cls-4 {
        fill: #00d820;
      }

      .cls-5 {
        fill: #ffe713;
      }
    </style>
  </defs>
  <path id="Path_10" data-name="Path 10" class="cls-1" d="M39.543,3a36.543,36.543,0,1,0,0,73.085A6.094,6.094,0,0,0,44.05,65.894,6.068,6.068,0,0,1,48.6,55.784h7.187a20.309,20.309,0,0,0,20.3-20.3C76.085,17.536,59.722,3,39.543,3ZM17.211,39.543a6.09,6.09,0,1,1,6.09-6.09A6.082,6.082,0,0,1,17.211,39.543ZM29.392,23.3a6.09,6.09,0,1,1,6.09-6.09A6.082,6.082,0,0,1,29.392,23.3Zm20.3,0a6.09,6.09,0,1,1,6.09-6.09A6.082,6.082,0,0,1,49.694,23.3ZM61.874,39.543a6.09,6.09,0,1,1,6.09-6.09A6.082,6.082,0,0,1,61.874,39.543Z" transform="translate(9.181 9.181)"/>
  <path id="Path_11" data-name="Path 11" class="cls-2" d="M0,0H97.447V97.447H0Z"/>
  <circle id="Ellipse_25" data-name="Ellipse 25" class="cls-3" cx="6.5" cy="6.5" r="6.5" transform="translate(32 20)"/>
  <circle id="Ellipse_26" data-name="Ellipse 26" class="cls-4" cx="6.5" cy="6.5" r="6.5" transform="translate(52 20)"/>
  <path id="Path_239" data-name="Path 239" class="cls-5" d="M6.5,0A6.5,6.5,0,1,1,0,6.5,6.5,6.5,0,0,1,6.5,0Z" transform="translate(65 36)"/>
  <circle id="Ellipse_24" data-name="Ellipse 24" class="cls-4" cx="6.5" cy="6.5" r="6.5" transform="translate(20 36)"/>
</svg>
