<svg id="Payment" xmlns="http://www.w3.org/2000/svg" width="200" height="200" viewBox="0 0 200 200">
  <defs>
    <style>
      .cls-1 {
        fill: #2c435b;
      }

      .cls-2 {
        fill: #fff;
      }

      .cls-3, .cls-6 {
        fill: #707070;
      }

      .cls-4 {
        font-size: 16px;
        font-weight: 800;
      }

      .cls-4, .cls-5 {
        fill: #00d820;
      }

      .cls-4, .cls-6 {
        font-family: "Open Sans";
      }

      .cls-6 {
        font-size: 10px;
        font-weight: 700;
      }
    </style>
  </defs>
  <circle id="Ellipse_1_copy_2" data-name="Ellipse 1 copy 2" class="cls-1" cx="100" cy="100" r="100"/>
  <g id="paper_copy" data-name="paper copy">
    <rect id="Rounded_Rectangle_1_copy" data-name="Rounded Rectangle 1 copy" class="cls-2" x="35" y="65" width="130" height="90"/>
    <rect class="cls-3" x="50" y="88" width="100" height="5"/>
    <rect id="Rectangle_2_copy" data-name="Rectangle 2 copy" class="cls-3" x="50" y="98" width="100" height="5"/>
    <rect id="Rectangle_2_copy_2" data-name="Rectangle 2 copy 2" class="cls-3" x="50" y="108" width="100" height="5"/>
    <rect id="Rectangle_2_copy_3" data-name="Rectangle 2 copy 3" class="cls-3" x="50" y="118" width="100" height="5"/>
    <text id="_" data-name="$$$$" class="cls-4" x="113.04" y="140.777">$$$$</text>
    <path id="Rounded_Rectangle_1" data-name="Rounded Rectangle 1" class="cls-5" d="M45,46H155a10,10,0,0,1,10,10V66a0,0,0,0,1,0,0H35a0,0,0,0,1,0,0V56A10,10,0,0,1,45,46Z"/>
    <text id="INVOICE" class="cls-6" x="109.04" y="81.777">INVOICE</text>
  </g>
</svg>
