<svg id="developer_mode-black-18dp" xmlns="http://www.w3.org/2000/svg" width="84.061" height="84.061" viewBox="0 0 84.061 84.061">
  <defs>
    <style>
      .cls-1 {
        fill: none;
      }

      .cls-2 {
        fill: #05ac72;
      }
    </style>
  </defs>
  <path id="Path_12" data-name="Path 12" class="cls-1" d="M0,0H84.061V84.061H0Z"/>
  <path id="Path_13" data-name="Path 13" class="cls-2" d="M14.508,15.01H49.533v7.005h7.005V8.005a7,7,0,0,0-7.005-6.97L14.508,1A7.026,7.026,0,0,0,7.5,8.005v14.01h7.005ZM43.964,55.6,60.04,39.528,43.964,23.451l-4.939,4.974,11.1,11.1-11.1,11.1ZM25.015,50.631l-11.1-11.1,11.1-11.1-4.939-4.974L4,39.528,20.077,55.6ZM49.533,64.046H14.508V57.04H7.5v14.01a7.026,7.026,0,0,0,7.005,7.005H49.533a7.026,7.026,0,0,0,7.005-7.005V57.04H49.533Z" transform="translate(10.01 2.503)"/>
</svg>
